<mxfile host="Electron" modified="2023-12-13T23:49:46.832Z" agent="Mozilla/5.0 (Windows NT 10.0; Win64; x64) AppleWebKit/537.36 (KHTML, like Gecko) draw.io/22.1.2 Chrome/114.0.5735.289 Electron/25.9.4 Safari/537.36" etag="mTvO7v7JnHEVGSmWSrI8" version="22.1.2" type="device">
  <diagram name="Page-1" id="29R9UVaID5Z7XcWJXufP">
    <mxGraphModel dx="2577" dy="1010" grid="1" gridSize="10" guides="1" tooltips="1" connect="1" arrows="1" fold="1" page="1" pageScale="1" pageWidth="850" pageHeight="1100" math="0" shadow="0">
      <root>
        <mxCell id="0" />
        <mxCell id="1" parent="0" />
        <mxCell id="9O1ev97_mkxgKp2ZkS_m-1" value="Users" style="swimlane;fontStyle=1;align=center;verticalAlign=top;childLayout=stackLayout;horizontal=1;startSize=26;horizontalStack=0;resizeParent=1;resizeParentMax=0;resizeLast=0;collapsible=1;marginBottom=0;whiteSpace=wrap;html=1;" parent="1" vertex="1">
          <mxGeometry x="325" y="120" width="190" height="280" as="geometry">
            <mxRectangle x="210" y="190" width="70" height="30" as="alternateBounds" />
          </mxGeometry>
        </mxCell>
        <mxCell id="9O1ev97_mkxgKp2ZkS_m-2" value="&lt;font style=&quot;font-size: 18px;&quot;&gt;&amp;lt;&amp;lt;get&amp;gt;&amp;gt; -userId&lt;br&gt;&amp;lt;&amp;lt;get/set&amp;gt;&amp;gt; -fname&lt;br&gt;&amp;lt;&amp;lt;get/set&amp;gt;&amp;gt; -sname&lt;br&gt;&amp;lt;&amp;lt;get/set&amp;gt;&amp;gt; -type&lt;br&gt;&amp;lt;&amp;lt;get/set&amp;gt;&amp;gt; -email&lt;br&gt;&amp;lt;&amp;lt;get/set&amp;gt;&amp;gt; -password&lt;br&gt;&amp;lt;&amp;lt;get/set&amp;gt;&amp;gt; -phone&lt;br&gt;&amp;lt;&amp;lt;get/set&amp;gt;&amp;gt; -photo&lt;/font&gt;" style="text;strokeColor=none;fillColor=none;align=left;verticalAlign=top;spacingLeft=4;spacingRight=4;overflow=hidden;rotatable=0;points=[[0,0.5],[1,0.5]];portConstraint=eastwest;whiteSpace=wrap;html=1;" parent="9O1ev97_mkxgKp2ZkS_m-1" vertex="1">
          <mxGeometry y="26" width="190" height="204" as="geometry" />
        </mxCell>
        <mxCell id="9O1ev97_mkxgKp2ZkS_m-3" value="" style="line;strokeWidth=1;fillColor=none;align=left;verticalAlign=middle;spacingTop=-1;spacingLeft=3;spacingRight=3;rotatable=0;labelPosition=right;points=[];portConstraint=eastwest;strokeColor=inherit;" parent="9O1ev97_mkxgKp2ZkS_m-1" vertex="1">
          <mxGeometry y="230" width="190" height="8" as="geometry" />
        </mxCell>
        <mxCell id="9O1ev97_mkxgKp2ZkS_m-4" value="&lt;font style=&quot;font-size: 15px;&quot;&gt;+login(email, password)&lt;br&gt;+logout()&lt;/font&gt;" style="text;strokeColor=none;fillColor=none;align=left;verticalAlign=top;spacingLeft=4;spacingRight=4;overflow=hidden;rotatable=0;points=[[0,0.5],[1,0.5]];portConstraint=eastwest;whiteSpace=wrap;html=1;" parent="9O1ev97_mkxgKp2ZkS_m-1" vertex="1">
          <mxGeometry y="238" width="190" height="42" as="geometry" />
        </mxCell>
        <mxCell id="9O1ev97_mkxgKp2ZkS_m-9" value="Admin" style="swimlane;fontStyle=1;align=center;verticalAlign=top;childLayout=stackLayout;horizontal=1;startSize=30;horizontalStack=0;resizeParent=1;resizeParentMax=0;resizeLast=0;collapsible=1;marginBottom=0;whiteSpace=wrap;html=1;" parent="1" vertex="1">
          <mxGeometry x="45" y="480" width="240" height="220" as="geometry" />
        </mxCell>
        <mxCell id="9O1ev97_mkxgKp2ZkS_m-11" value="" style="line;strokeWidth=1;fillColor=none;align=left;verticalAlign=middle;spacingTop=-1;spacingLeft=3;spacingRight=3;rotatable=0;labelPosition=right;points=[];portConstraint=eastwest;strokeColor=inherit;" parent="9O1ev97_mkxgKp2ZkS_m-9" vertex="1">
          <mxGeometry y="30" width="240" height="8" as="geometry" />
        </mxCell>
        <mxCell id="9O1ev97_mkxgKp2ZkS_m-12" value="&lt;font style=&quot;font-size: 18px;&quot;&gt;+addUser(Email, pass, ...)&lt;br&gt;+deleteUser(userId)&lt;br&gt;+updateuser(userId, Data..)&lt;br&gt;+acceptPost(postId)&lt;br&gt;+refusePost(postId)&lt;br&gt;+deletePost(postId)&lt;br&gt;+updatePost(postId, Data...)&lt;/font&gt;" style="text;strokeColor=none;fillColor=none;align=left;verticalAlign=top;spacingLeft=4;spacingRight=4;overflow=hidden;rotatable=0;points=[[0,0.5],[1,0.5]];portConstraint=eastwest;whiteSpace=wrap;html=1;" parent="9O1ev97_mkxgKp2ZkS_m-9" vertex="1">
          <mxGeometry y="38" width="240" height="182" as="geometry" />
        </mxCell>
        <mxCell id="9O1ev97_mkxgKp2ZkS_m-15" value="" style="endArrow=open;endFill=1;endSize=12;html=1;rounded=0;exitX=0;exitY=1.102;exitDx=0;exitDy=0;exitPerimeter=0;entryX=0.5;entryY=0;entryDx=0;entryDy=0;" parent="1" source="9O1ev97_mkxgKp2ZkS_m-4" target="9O1ev97_mkxgKp2ZkS_m-9" edge="1">
          <mxGeometry width="160" relative="1" as="geometry">
            <mxPoint x="455" y="520" as="sourcePoint" />
            <mxPoint x="615" y="520" as="targetPoint" />
          </mxGeometry>
        </mxCell>
        <mxCell id="9O1ev97_mkxgKp2ZkS_m-16" value="Editor" style="swimlane;fontStyle=1;align=center;verticalAlign=top;childLayout=stackLayout;horizontal=1;startSize=26;horizontalStack=0;resizeParent=1;resizeParentMax=0;resizeLast=0;collapsible=1;marginBottom=0;whiteSpace=wrap;html=1;" parent="1" vertex="1">
          <mxGeometry x="315" y="480" width="200" height="210" as="geometry" />
        </mxCell>
        <mxCell id="9O1ev97_mkxgKp2ZkS_m-18" value="" style="line;strokeWidth=1;fillColor=none;align=left;verticalAlign=middle;spacingTop=-1;spacingLeft=3;spacingRight=3;rotatable=0;labelPosition=right;points=[];portConstraint=eastwest;strokeColor=inherit;" parent="9O1ev97_mkxgKp2ZkS_m-16" vertex="1">
          <mxGeometry y="26" width="200" height="8" as="geometry" />
        </mxCell>
        <mxCell id="9O1ev97_mkxgKp2ZkS_m-19" value="&lt;font style=&quot;font-size: 18px;&quot;&gt;+addPost(data...)&lt;br&gt;+deletePost(postId)&lt;br&gt;+updatePost(postId, data...)&lt;br&gt;+reply(postId, CommentId, comment)&lt;br&gt;+getMyPosts()&lt;/font&gt;" style="text;strokeColor=none;fillColor=none;align=left;verticalAlign=top;spacingLeft=4;spacingRight=4;overflow=hidden;rotatable=0;points=[[0,0.5],[1,0.5]];portConstraint=eastwest;whiteSpace=wrap;html=1;" parent="9O1ev97_mkxgKp2ZkS_m-16" vertex="1">
          <mxGeometry y="34" width="200" height="176" as="geometry" />
        </mxCell>
        <mxCell id="9O1ev97_mkxgKp2ZkS_m-20" value="" style="endArrow=open;endFill=1;endSize=12;html=1;rounded=0;entryX=0.5;entryY=0;entryDx=0;entryDy=0;exitX=0.5;exitY=1.03;exitDx=0;exitDy=0;exitPerimeter=0;" parent="1" source="9O1ev97_mkxgKp2ZkS_m-4" target="9O1ev97_mkxgKp2ZkS_m-16" edge="1">
          <mxGeometry width="160" relative="1" as="geometry">
            <mxPoint x="405" y="410" as="sourcePoint" />
            <mxPoint x="155" y="490" as="targetPoint" />
          </mxGeometry>
        </mxCell>
        <mxCell id="9O1ev97_mkxgKp2ZkS_m-23" value="Viewer" style="swimlane;fontStyle=1;align=center;verticalAlign=top;childLayout=stackLayout;horizontal=1;startSize=26;horizontalStack=0;resizeParent=1;resizeParentMax=0;resizeLast=0;collapsible=1;marginBottom=0;whiteSpace=wrap;html=1;" parent="1" vertex="1">
          <mxGeometry x="585" y="480" width="180" height="210" as="geometry" />
        </mxCell>
        <mxCell id="9O1ev97_mkxgKp2ZkS_m-24" value="" style="line;strokeWidth=1;fillColor=none;align=left;verticalAlign=middle;spacingTop=-1;spacingLeft=3;spacingRight=3;rotatable=0;labelPosition=right;points=[];portConstraint=eastwest;strokeColor=inherit;" parent="9O1ev97_mkxgKp2ZkS_m-23" vertex="1">
          <mxGeometry y="26" width="180" height="8" as="geometry" />
        </mxCell>
        <mxCell id="9O1ev97_mkxgKp2ZkS_m-25" value="&lt;font style=&quot;font-size: 18px;&quot;&gt;+addLike(postId)&lt;br&gt;+addDisLike(postId)&lt;br&gt;+addComment(postId)&lt;br&gt;+SavePost(postId)&lt;br&gt;+getSavedPosts()&lt;/font&gt;" style="text;strokeColor=none;fillColor=none;align=left;verticalAlign=top;spacingLeft=4;spacingRight=4;overflow=hidden;rotatable=0;points=[[0,0.5],[1,0.5]];portConstraint=eastwest;whiteSpace=wrap;html=1;" parent="9O1ev97_mkxgKp2ZkS_m-23" vertex="1">
          <mxGeometry y="34" width="180" height="176" as="geometry" />
        </mxCell>
        <mxCell id="9O1ev97_mkxgKp2ZkS_m-26" value="" style="endArrow=open;endFill=1;endSize=12;html=1;rounded=0;entryX=0.5;entryY=0;entryDx=0;entryDy=0;exitX=0.986;exitY=1.111;exitDx=0;exitDy=0;exitPerimeter=0;" parent="1" source="9O1ev97_mkxgKp2ZkS_m-4" target="9O1ev97_mkxgKp2ZkS_m-23" edge="1">
          <mxGeometry width="160" relative="1" as="geometry">
            <mxPoint x="415" y="420" as="sourcePoint" />
            <mxPoint x="415" y="490" as="targetPoint" />
          </mxGeometry>
        </mxCell>
        <mxCell id="9O1ev97_mkxgKp2ZkS_m-27" value="Post" style="swimlane;fontStyle=1;align=center;verticalAlign=top;childLayout=stackLayout;horizontal=1;startSize=26;horizontalStack=0;resizeParent=1;resizeParentMax=0;resizeLast=0;collapsible=1;marginBottom=0;whiteSpace=wrap;html=1;" parent="1" vertex="1">
          <mxGeometry x="-400" y="430" width="280" height="370" as="geometry" />
        </mxCell>
        <mxCell id="9O1ev97_mkxgKp2ZkS_m-28" value="&lt;font style=&quot;font-size: 18px;&quot;&gt;&amp;lt;&amp;lt;get&amp;gt;&amp;gt; -PostId&lt;br&gt;&amp;lt;&amp;lt;get/set&amp;gt;&amp;gt; -title&lt;br&gt;&amp;lt;&amp;lt;get/set&amp;gt;&amp;gt; -body&lt;br&gt;&amp;lt;&amp;lt;get/set&amp;gt;&amp;gt; -creationTime&lt;br&gt;&amp;lt;&amp;lt;get/set&amp;gt;&amp;gt; -type&lt;br&gt;&amp;lt;&amp;lt;get/set&amp;gt;&amp;gt; -numOfViews&lt;br&gt;&amp;lt;&amp;lt;get/set&amp;gt;&amp;gt; -photo&lt;br&gt;&amp;lt;&amp;lt;get/set&amp;gt;&amp;gt; -likes&lt;br&gt;&amp;lt;&amp;lt;get/set&amp;gt;&amp;gt; -dislikes&lt;br&gt;&amp;lt;&amp;lt;get/set&amp;gt;&amp;gt; -ownerId&lt;br&gt;&amp;lt;&amp;lt;get/set&amp;gt;&amp;gt; -commentNumber&lt;/font&gt;" style="text;strokeColor=none;fillColor=none;align=left;verticalAlign=top;spacingLeft=4;spacingRight=4;overflow=hidden;rotatable=0;points=[[0,0.5],[1,0.5]];portConstraint=eastwest;whiteSpace=wrap;html=1;" parent="9O1ev97_mkxgKp2ZkS_m-27" vertex="1">
          <mxGeometry y="26" width="280" height="244" as="geometry" />
        </mxCell>
        <mxCell id="9O1ev97_mkxgKp2ZkS_m-29" value="" style="line;strokeWidth=1;fillColor=none;align=left;verticalAlign=middle;spacingTop=-1;spacingLeft=3;spacingRight=3;rotatable=0;labelPosition=right;points=[];portConstraint=eastwest;strokeColor=inherit;" parent="9O1ev97_mkxgKp2ZkS_m-27" vertex="1">
          <mxGeometry y="270" width="280" height="8" as="geometry" />
        </mxCell>
        <mxCell id="9O1ev97_mkxgKp2ZkS_m-30" value="&lt;font style=&quot;font-size: 15px;&quot;&gt;+addLike(userId)&lt;br&gt;+addDislike(userId)&lt;br&gt;+addComment(userId)&lt;br&gt;+reply(userId)&lt;br&gt;&lt;/font&gt;" style="text;strokeColor=none;fillColor=none;align=left;verticalAlign=top;spacingLeft=4;spacingRight=4;overflow=hidden;rotatable=0;points=[[0,0.5],[1,0.5]];portConstraint=eastwest;whiteSpace=wrap;html=1;" parent="9O1ev97_mkxgKp2ZkS_m-27" vertex="1">
          <mxGeometry y="278" width="280" height="92" as="geometry" />
        </mxCell>
        <mxCell id="9O1ev97_mkxgKp2ZkS_m-32" style="edgeStyle=orthogonalEdgeStyle;rounded=0;orthogonalLoop=1;jettySize=auto;html=1;exitX=1;exitY=0.5;exitDx=0;exitDy=0;entryX=0.972;entryY=1;entryDx=0;entryDy=0;entryPerimeter=0;" parent="1" source="9O1ev97_mkxgKp2ZkS_m-30" target="9O1ev97_mkxgKp2ZkS_m-25" edge="1">
          <mxGeometry relative="1" as="geometry" />
        </mxCell>
        <mxCell id="9O1ev97_mkxgKp2ZkS_m-33" style="edgeStyle=orthogonalEdgeStyle;rounded=0;orthogonalLoop=1;jettySize=auto;html=1;exitX=0.994;exitY=1.004;exitDx=0;exitDy=0;exitPerimeter=0;entryX=0.463;entryY=1.005;entryDx=0;entryDy=0;entryPerimeter=0;" parent="1" source="9O1ev97_mkxgKp2ZkS_m-30" target="9O1ev97_mkxgKp2ZkS_m-19" edge="1">
          <mxGeometry relative="1" as="geometry">
            <mxPoint x="-110" y="764" as="sourcePoint" />
            <mxPoint x="430" y="700" as="targetPoint" />
          </mxGeometry>
        </mxCell>
        <mxCell id="9O1ev97_mkxgKp2ZkS_m-35" value="System" style="swimlane;fontStyle=1;align=center;verticalAlign=top;childLayout=stackLayout;horizontal=1;startSize=26;horizontalStack=0;resizeParent=1;resizeParentMax=0;resizeLast=0;collapsible=1;marginBottom=0;whiteSpace=wrap;html=1;" parent="1" vertex="1">
          <mxGeometry x="-220" y="200" width="160" height="60" as="geometry" />
        </mxCell>
        <mxCell id="9O1ev97_mkxgKp2ZkS_m-37" value="" style="line;strokeWidth=1;fillColor=none;align=left;verticalAlign=middle;spacingTop=-1;spacingLeft=3;spacingRight=3;rotatable=0;labelPosition=right;points=[];portConstraint=eastwest;strokeColor=inherit;" parent="9O1ev97_mkxgKp2ZkS_m-35" vertex="1">
          <mxGeometry y="26" width="160" height="8" as="geometry" />
        </mxCell>
        <mxCell id="9O1ev97_mkxgKp2ZkS_m-38" value="+showNews" style="text;strokeColor=none;fillColor=none;align=left;verticalAlign=top;spacingLeft=4;spacingRight=4;overflow=hidden;rotatable=0;points=[[0,0.5],[1,0.5]];portConstraint=eastwest;whiteSpace=wrap;html=1;" parent="9O1ev97_mkxgKp2ZkS_m-35" vertex="1">
          <mxGeometry y="34" width="160" height="26" as="geometry" />
        </mxCell>
        <mxCell id="9O1ev97_mkxgKp2ZkS_m-39" style="edgeStyle=orthogonalEdgeStyle;rounded=0;orthogonalLoop=1;jettySize=auto;html=1;exitX=1;exitY=0.5;exitDx=0;exitDy=0;entryX=0.5;entryY=0;entryDx=0;entryDy=0;" parent="1" source="9O1ev97_mkxgKp2ZkS_m-38" target="9O1ev97_mkxgKp2ZkS_m-27" edge="1">
          <mxGeometry relative="1" as="geometry" />
        </mxCell>
        <mxCell id="9O1ev97_mkxgKp2ZkS_m-47" style="edgeStyle=orthogonalEdgeStyle;rounded=0;orthogonalLoop=1;jettySize=auto;html=1;exitX=0.75;exitY=0;exitDx=0;exitDy=0;entryX=0.5;entryY=0;entryDx=0;entryDy=0;" parent="1" source="9O1ev97_mkxgKp2ZkS_m-40" target="9O1ev97_mkxgKp2ZkS_m-1" edge="1">
          <mxGeometry relative="1" as="geometry" />
        </mxCell>
        <mxCell id="9O1ev97_mkxgKp2ZkS_m-40" value="DataBase" style="swimlane;fontStyle=1;align=center;verticalAlign=top;childLayout=stackLayout;horizontal=1;startSize=26;horizontalStack=0;resizeParent=1;resizeParentMax=0;resizeLast=0;collapsible=1;marginBottom=0;whiteSpace=wrap;html=1;" parent="1" vertex="1">
          <mxGeometry x="-630" y="140" width="160" height="170" as="geometry" />
        </mxCell>
        <mxCell id="9O1ev97_mkxgKp2ZkS_m-41" value="-serverName&lt;br&gt;-userName&lt;br&gt;-Password&lt;br&gt;-databaseName" style="text;strokeColor=none;fillColor=none;align=left;verticalAlign=top;spacingLeft=4;spacingRight=4;overflow=hidden;rotatable=0;points=[[0,0.5],[1,0.5]];portConstraint=eastwest;whiteSpace=wrap;html=1;" parent="9O1ev97_mkxgKp2ZkS_m-40" vertex="1">
          <mxGeometry y="26" width="160" height="64" as="geometry" />
        </mxCell>
        <mxCell id="9O1ev97_mkxgKp2ZkS_m-42" value="" style="line;strokeWidth=1;fillColor=none;align=left;verticalAlign=middle;spacingTop=-1;spacingLeft=3;spacingRight=3;rotatable=0;labelPosition=right;points=[];portConstraint=eastwest;strokeColor=inherit;" parent="9O1ev97_mkxgKp2ZkS_m-40" vertex="1">
          <mxGeometry y="90" width="160" height="8" as="geometry" />
        </mxCell>
        <mxCell id="9O1ev97_mkxgKp2ZkS_m-43" value="+connect()&lt;br&gt;+query()&lt;br&gt;+getData()&lt;br&gt;+rows()" style="text;strokeColor=none;fillColor=none;align=left;verticalAlign=top;spacingLeft=4;spacingRight=4;overflow=hidden;rotatable=0;points=[[0,0.5],[1,0.5]];portConstraint=eastwest;whiteSpace=wrap;html=1;" parent="9O1ev97_mkxgKp2ZkS_m-40" vertex="1">
          <mxGeometry y="98" width="160" height="72" as="geometry" />
        </mxCell>
        <mxCell id="9O1ev97_mkxgKp2ZkS_m-44" style="edgeStyle=orthogonalEdgeStyle;rounded=0;orthogonalLoop=1;jettySize=auto;html=1;exitX=1;exitY=0.5;exitDx=0;exitDy=0;entryX=0;entryY=0.25;entryDx=0;entryDy=0;" parent="1" source="9O1ev97_mkxgKp2ZkS_m-41" target="9O1ev97_mkxgKp2ZkS_m-35" edge="1">
          <mxGeometry relative="1" as="geometry" />
        </mxCell>
        <mxCell id="9O1ev97_mkxgKp2ZkS_m-45" style="edgeStyle=orthogonalEdgeStyle;rounded=0;orthogonalLoop=1;jettySize=auto;html=1;exitX=1;exitY=0.5;exitDx=0;exitDy=0;entryX=0;entryY=0;entryDx=0;entryDy=0;" parent="1" source="9O1ev97_mkxgKp2ZkS_m-43" target="9O1ev97_mkxgKp2ZkS_m-27" edge="1">
          <mxGeometry relative="1" as="geometry" />
        </mxCell>
        <mxCell id="9O1ev97_mkxgKp2ZkS_m-48" value="" style="endArrow=open;endFill=1;endSize=12;html=1;rounded=0;exitX=0.708;exitY=1.093;exitDx=0;exitDy=0;exitPerimeter=0;entryX=0.178;entryY=-0.032;entryDx=0;entryDy=0;entryPerimeter=0;" parent="1" source="9O1ev97_mkxgKp2ZkS_m-43" target="9O1ev97_mkxgKp2ZkS_m-9" edge="1">
          <mxGeometry width="160" relative="1" as="geometry">
            <mxPoint x="-340" y="520" as="sourcePoint" />
            <mxPoint x="-180" y="520" as="targetPoint" />
          </mxGeometry>
        </mxCell>
        <mxCell id="9O1ev97_mkxgKp2ZkS_m-49" value="" style="endArrow=open;endFill=1;endSize=12;html=1;rounded=0;exitX=1.031;exitY=0.819;exitDx=0;exitDy=0;exitPerimeter=0;entryX=0;entryY=0;entryDx=0;entryDy=0;" parent="1" source="9O1ev97_mkxgKp2ZkS_m-43" target="9O1ev97_mkxgKp2ZkS_m-23" edge="1">
          <mxGeometry width="160" relative="1" as="geometry">
            <mxPoint x="-507" y="327" as="sourcePoint" />
            <mxPoint x="98" y="483" as="targetPoint" />
          </mxGeometry>
        </mxCell>
        <mxCell id="9O1ev97_mkxgKp2ZkS_m-50" value="" style="endArrow=open;endFill=1;endSize=12;html=1;rounded=0;exitX=1;exitY=0.153;exitDx=0;exitDy=0;exitPerimeter=0;entryX=0.18;entryY=0.002;entryDx=0;entryDy=0;entryPerimeter=0;" parent="1" source="9O1ev97_mkxgKp2ZkS_m-43" target="9O1ev97_mkxgKp2ZkS_m-16" edge="1">
          <mxGeometry width="160" relative="1" as="geometry">
            <mxPoint x="-497" y="337" as="sourcePoint" />
            <mxPoint x="108" y="493" as="targetPoint" />
          </mxGeometry>
        </mxCell>
      </root>
    </mxGraphModel>
  </diagram>
</mxfile>
